<svg width="70" height="72" viewBox="0 0 70 72" fill="none" xmlns="http://www.w3.org/2000/svg">
  <g fill="#E12454">
    <!-- Uterus Shape -->
    <path d="M35 12C25.0744 12 17 20.0744 17 30C17 39.9256 25.0744 48 35 48C44.9256 48 53 39.9256 53 30C53 20.0744 44.9256 12 35 12ZM35 44C27.268 44 21 37.732 21 30C21 22.268 27.268 16 35 16C42.732 16 49 22.268 49 30C49 37.732 42.732 44 35 44Z"/>
    
    <!-- Fallopian Tubes -->
    <path d="M28.5 18.5C27.6716 18.5 27 19.1716 27 20C27 20.8284 27.6716 21.5 28.5 21.5H41.5C42.3284 21.5 43 20.8284 43 20C43 19.1716 42.3284 18.5 41.5 18.5H28.5Z"/>
    
    <!-- Sperm Icon -->
    <path d="M35 54L35 58M35 58L32 60M35 58L38 60M35 58L37 55M37 55L40 56M35 58L32 55M32 55L30 50M30 50L35 54Z"/>
    
    <!-- Sperm Head -->
    <circle cx="30" cy="50" r="2.5" fill="#E12454"/>
  </g>
</svg>

