<svg width="60" height="72" viewBox="0 0 60 72" fill="none" xmlns="http://www.w3.org/2000/svg">
  <title>Injection Procedure</title>
  <desc>An icon showing a needle being inserted into the uterus to represent an injection or hysteroscopy procedure.</desc>
  <path d="M30 45C23.5 45 18 39.5 18 33S23.5 21 30 21 42 26.5 42 33 36.5 45 30 45ZM30 25C26.2 25 23 28.2 23 32S26.2 39 30 39 37 35.8 37 32 33.8 25 30 25Z" fill="#E12454"/>
  <rect x="29" y="3" width="2" height="22" rx="1" fill="#E12454"/>
  <circle cx="30" cy="3" r="2" fill="#E12454"/>
  <rect x="27" y="26" width="6" height="4" rx="2" fill="#E12454"/>
  <line x1="30" y1="6" x2="30" y2="26" stroke="#E12454" strokeWidth="2"/>
  <circle cx="30" cy="28" r="2" fill="#E12454"/>
</svg>