<svg width="60" height="72" viewBox="0 0 60 72" fill="none" xmlns="http://www.w3.org/2000/svg">
  <title>Embryo Donation for IVF</title>
  <desc>An icon representing embryo donation for IVF, featuring an embryo, heart symbol, and arrows.</desc>
  
  <!-- Embryo -->
  <path d="M30 10C25.5 10 22 13.5 22 18C22 22.5 25.5 26 30 26C34.5 26 38 22.5 38 18C38 13.5 34.5 10 30 10Z" fill="#E12454" />
  <path d="M30 22C26.2 22 23 18.8 23 15C23 11.2 26.2 8 30 8C33.8 8 37 11.2 37 15C37 18.8 33.8 22 30 22Z" stroke="#E12454" stroke-width="2" />

  <!-- Heart Symbol -->
  <path d="M30 33C27 33 24 36 24 39C24 42 30 48 30 48C30 48 36 42 36 39C36 36 33 33 30 33Z" fill="#E12454" />
  <path d="M30 36C27.2 36 25 38.2 25 41C25 43.8 30 49 30 49C30 49 35 43.8 35 41C35 38.2 32.8 36 30 36Z" stroke="#E12454" stroke-width="2"/>

  <!-- Arrows -->
  <line x1="30" y1="27" x2="30" y2="33" stroke="#E12454" stroke-width="2" />
  <path d="M30 33L27 30L33 30L30 33Z" fill="#E12454" />
  <line x1="30" y1="45" x2="30" y2="57" stroke="#E12454" stroke-width="2" />
  <path d="M30 57L27 54L33 54L30 57Z" fill="#E12454" />
  <line x1="21" y1="30" x2="27" y2="36" stroke="#E12454" stroke-width="2" />
  <line x1="39" y1="30" x2="33" y2="36" stroke="#E12454" stroke-width="2" />
</svg>
