<svg width="60" height="72" viewBox="0 0 60 72" fill="none" xmlns="http://www.w3.org/2000/svg">
  <title>Laparoscopy Removal Procedure</title>
  <desc>An icon showing a laparoscope, forceps, and an arrow to represent a laparoscopy removal procedure for IVF.</desc>
  
  <!-- Laparoscope -->
  <rect x="28" y="4" width="4" height="22" rx="2" fill="#E12454"/>
  <circle cx="30" cy="4" r="3" fill="#E12454"/>
  <line x1="30" y1="26" x2="30" y2="34" stroke="#E12454" stroke-width="2"/>
  
  <!-- Forceps -->
  <path d="M20 42L24 48L28 42" stroke="#E12454" stroke-width="2" stroke-linecap="round"/>
  <path d="M32 42L36 48L40 42" stroke="#E12454" stroke-width="2" stroke-linecap="round"/>
  <circle cx="24" cy="45" r="1.5" fill="#E12454"/>
  <circle cx="36" cy="45" r="1.5" fill="#E12454"/>
  
  <!-- Uterus -->
  <path d="M30 45C23.5 45 18 39.5 18 33S23.5 21 30 21 42 26.5 42 33 36.5 45 30 45ZM30 25C26.2 25 23 28.2 23 32S26.2 39 30 39 37 35.8 37 32 33.8 25 30 25Z" fill="none" stroke="#E12454" stroke-width="2"/>
  
  <!-- Arrow -->
  <line x1="30" y1="34" x2="30" y2="44" stroke="#E12454" stroke-width="2" stroke-linecap="round"/>
  <path d="M30 44L27 47L33 47L30 44Z" fill="#E12454"/>
  
  <!-- Additional Details for Clarity -->
  <!-- Adding a diagonal line through the forceps to represent removal -->
  <line x1="20" y1="42" x2="40" y2="42" stroke="#E12454" stroke-width="1.5" stroke-linecap="round" stroke-dasharray="2 2"/>
</svg>
